<svg id="Cancel_icon" data-name="Cancel icon" xmlns="http://www.w3.org/2000/svg" width="70" height="70" viewBox="0 0 70 70">
  <path id="Path_9" data-name="Path 9" d="M35,0A35,35,0,1,1,0,35,35,35,0,0,1,35,0Z" fill="red"/>
  <path id="Icon_awesome-plus" data-name="Icon awesome-plus" d="M33.353,16.361H21.808V4.816A2.566,2.566,0,0,0,19.242,2.25H16.676a2.566,2.566,0,0,0-2.566,2.566V16.361H2.566A2.566,2.566,0,0,0,0,18.926v2.566a2.566,2.566,0,0,0,2.566,2.566H14.111V35.6a2.566,2.566,0,0,0,2.566,2.566h2.566A2.566,2.566,0,0,0,21.808,35.6V24.058H33.353a2.566,2.566,0,0,0,2.566-2.566V18.926A2.566,2.566,0,0,0,33.353,16.361Z" transform="translate(36.591 8.011) rotate(45)" fill="#fff"/>
</svg>
